<?xml version="1.0" standalone="no"?>
<!DOCTYPE svg PUBLIC "-//W3C//DTD SVG 1.1//EN" "http://www.w3.org/Graphics/SVG/1.1/DTD/svg11.dtd" >
<svg xmlns="http://www.w3.org/2000/svg">
<metadata></metadata>
<defs>
<font id="sf_ui_textlight" horiz-adv-x="1321" >
<font-face units-per-em="2048" ascent="1638" descent="-410" />
<missing-glyph horiz-adv-x="554" />
<glyph horiz-adv-x="0" />
<glyph unicode="&#xd;" horiz-adv-x="0" />
<glyph unicode=" "  horiz-adv-x="554" />
<glyph unicode="&#x09;" horiz-adv-x="554" />
<glyph unicode="&#xa0;" horiz-adv-x="554" />
<glyph unicode="!" horiz-adv-x="617" d="M192 101q0 51 33.5 84.5t83.5 33.5t83 -33.5t33 -84.5q0 -50 -33 -83.5t-83 -33.5t-83.5 33.5t-33.5 83.5zM233 1444h150l-11 -987h-127z" />
<glyph unicode="&#x22;" horiz-adv-x="802" d="M173 935v508h123v-508h-123zM506 935v508h123v-508h-123z" />
<glyph unicode="#" horiz-adv-x="1316" d="M82 426l23 111h230l76 381h-225l22 110h226l86 417h111l-85 -417h339l86 417h112l-87 -417h238l-23 -110h-238l-77 -381h234l-23 -111h-233l-88 -426h-112l88 426h-339l-88 -426h-111l87 426h-229zM445 535h341l77 384h-342z" />
<glyph unicode="$" d="M150 391h130q8 -114 98.5 -191t231.5 -90v579l-55 15q-189 48 -279.5 139t-90.5 232q0 161 116 266.5t309 119.5v138h104v-137q186 -14 305.5 -120t123.5 -262h-130q-4 104 -88 178t-211 85v-544l59 -15q210 -52 304 -144t94 -245q0 -172 -123.5 -280.5t-333.5 -122.5 v-142h-104v141q-203 13 -330.5 123.5t-129.5 276.5zM316 1082q0 -101 71 -163.5t223 -96.5v521q-127 -6 -210.5 -80t-83.5 -181zM714 108q148 7 236.5 82.5t88.5 194.5q0 112 -76 178t-249 105v-560z" />
<glyph unicode="%" horiz-adv-x="1610" d="M101 1125q0 149 83.5 244t214.5 95t214.5 -94.5t83.5 -244.5q0 -151 -83.5 -246t-214.5 -95t-214.5 95t-83.5 246zM204 0l551 746l514 697h141l-557 -756l-506 -687h-143zM224 1125q0 -109 48 -174.5t127 -65.5q78 0 126 66t48 174q0 109 -47 174t-127 65 q-79 0 -127 -65.5t-48 -173.5zM913 320q0 149 83.5 244t215.5 95q131 0 214 -94.5t83 -244.5q0 -151 -83 -246t-214 -95q-132 0 -215.5 95t-83.5 246zM1036 320q0 -109 48.5 -175t127.5 -66q78 0 126 66.5t48 174.5q0 109 -47 173.5t-127 64.5t-128 -65t-48 -173z" />
<glyph unicode="&#x26;" horiz-adv-x="1472" d="M122 377q0 243 281 392q5 3 38.5 20t38.5 20q-110 113 -153.5 191t-43.5 158q0 134 102.5 224t255.5 90t253.5 -89t100.5 -225q0 -109 -76.5 -198t-251.5 -179l400 -427q92 163 92 403v46h128v-46q0 -299 -130 -495l248 -262h-172l-158 168q-93 -91 -219.5 -142 t-259.5 -51q-209 0 -341.5 112.5t-132.5 289.5zM258 385q0 -128 97 -210.5t252 -82.5q107 0 212.5 45t172.5 118l-436 469q-3 -1 -19 -9.5t-33.5 -17.5t-21.5 -11q-111 -58 -167.5 -135t-56.5 -166zM414 1151q0 -64 38.5 -127t139.5 -165q147 73 210.5 142.5t63.5 151.5 q0 91 -63.5 150t-161.5 59q-96 0 -161.5 -60.5t-65.5 -150.5z" />
<glyph unicode="'" horiz-adv-x="469" d="M173 935v508h123v-508h-123z" />
<glyph unicode="(" horiz-adv-x="711" d="M188 599q0 252 67 456.5t210 386.5h114q-115 -141 -185.5 -372.5t-70.5 -470.5q0 -457 254 -867h-119q-130 163 -200 388.5t-70 478.5z" />
<glyph unicode=")" horiz-adv-x="711" d="M132 1442h115q142 -182 208.5 -386t66.5 -457q0 -252 -70 -477.5t-199 -389.5h-120q254 410 254 867q0 240 -70 471t-185 372z" />
<glyph unicode="*" horiz-adv-x="1052" d="M182 939l261 137l-261 138l53 92l249 -160l-11 297h106l-11 -297l249 160l53 -92l-261 -138l261 -137l-53 -91l-249 157l11 -294h-106l11 294l-249 -157z" />
<glyph unicode="+" d="M159 523v114h444v448h115v-448h443v-114h-443v-456h-115v456h-444z" />
<glyph unicode="," horiz-adv-x="607" d="M133 -339l85 531h162l-132 -531h-115z" />
<glyph unicode="-" horiz-adv-x="975" d="M159 520v124h656v-124h-656z" />
<glyph unicode="." horiz-adv-x="593" d="M186 100q0 46 32.5 78t78.5 32q45 0 77.5 -32t32.5 -78q0 -45 -32.5 -77.5t-77.5 -32.5q-46 0 -78.5 32.5t-32.5 77.5z" />
<glyph unicode="/" horiz-adv-x="695" d="M67 -327l443 1770h118l-444 -1770h-117z" />
<glyph unicode="0" horiz-adv-x="1282" d="M132 722q0 352 135.5 551.5t374.5 199.5q238 0 372.5 -200t134.5 -553q0 -354 -134 -552t-373 -198q-241 0 -375.5 198.5t-134.5 553.5zM270 722q0 -300 98 -466t274 -166t273 166t97 466q0 298 -97.5 464t-272.5 166t-273.5 -166.5t-98.5 -463.5z" />
<glyph unicode="1" horiz-adv-x="913" d="M114 1033v145q6 4 96 67t178.5 123.5t114.5 76.5h136v-1445h-136v1293h-13q-20 -12 -188.5 -129.5t-187.5 -130.5z" />
<glyph unicode="2" horiz-adv-x="1222" d="M152 1044v1q1 123 59.5 221t161.5 152.5t232 54.5q190 0 319 -115.5t129 -285.5q0 -112 -64 -221t-242 -299l-390 -416v-12h732v-124h-929v96l504 545q151 162 201.5 247.5t50.5 178.5q0 121 -90.5 203.5t-223.5 82.5q-139 0 -227 -85.5t-90 -222.5v-1h-133z" />
<glyph unicode="3" horiz-adv-x="1260" d="M137 369h132q9 -122 110.5 -200.5t249.5 -78.5q157 0 259.5 86t102.5 217q0 136 -100 214.5t-273 78.5h-175v118h169q140 0 227.5 77.5t87.5 201.5q0 118 -87 194t-221 76t-221.5 -73.5t-97.5 -196.5h-133q12 177 136.5 283.5t320.5 106.5q184 0 313 -109t129 -265 q0 -131 -71 -220.5t-197 -117.5v-13q155 -17 244.5 -113.5t89.5 -244.5q0 -178 -145 -299t-357 -121q-209 0 -347.5 112t-145.5 287z" />
<glyph unicode="4" horiz-adv-x="1312" d="M119 326v125q223 377 662 994h196v-996h216v-123h-216v-326h-133v326h-725zM262 448h582v866h-9q-192 -262 -318 -452t-255 -405v-9z" />
<glyph unicode="5" horiz-adv-x="1256" d="M152 373h134q11 -121 109 -201.5t235 -80.5q158 0 260 102t102 261t-101.5 261t-257.5 102q-106 0 -194.5 -48.5t-134.5 -131.5h-130l78 806h787v-123h-679l-48 -526h13q52 68 138 105t192 37q208 0 341 -134.5t133 -343.5q0 -214 -140 -351t-360 -137 q-197 0 -331.5 113.5t-145.5 289.5z" />
<glyph unicode="6" horiz-adv-x="1288" d="M130 691q0 368 144 575t401 207q179 0 304.5 -100t156.5 -269h-140q-27 113 -114.5 179.5t-208.5 66.5q-194 0 -301 -174.5t-109 -495.5h12q47 122 158.5 194t252.5 72q205 0 340.5 -136.5t135.5 -343.5q0 -215 -140.5 -355t-356.5 -140q-146 0 -258.5 70.5t-180.5 204.5 q-96 170 -96 445zM299 471q0 -161 104.5 -270t259.5 -109q154 0 257.5 106t103.5 263q0 160 -101.5 263t-258.5 103q-155 0 -260 -102.5t-105 -253.5z" />
<glyph unicode="7" horiz-adv-x="1161" d="M123 1320v123h920v-128l-661 -1315h-146l669 1308v12h-782z" />
<glyph unicode="8" horiz-adv-x="1294" d="M136 389q0 140 86.5 242t228.5 127v12q-118 28 -188.5 115.5t-70.5 205.5q0 167 128 274.5t327 107.5q200 0 327.5 -107t127.5 -275q0 -118 -70 -205.5t-188 -115.5v-12q141 -26 228 -127.5t87 -241.5q0 -186 -142.5 -302.5t-369.5 -116.5q-226 0 -368.5 117t-142.5 302z M274 398q0 -137 103.5 -223.5t269.5 -86.5t270 86.5t104 223.5q0 134 -103.5 217.5t-270.5 83.5q-166 0 -269.5 -83.5t-103.5 -217.5zM327 1080q0 -117 89 -190t231 -73q143 0 231.5 72.5t88.5 190.5q0 122 -89 198.5t-231 76.5t-231 -76.5t-89 -198.5z" />
<glyph unicode="9" horiz-adv-x="1288" d="M126 976q0 216 140.5 356.5t356.5 140.5q146 0 258.5 -71.5t180.5 -205.5q96 -168 96 -444q0 -368 -143.5 -574.5t-401.5 -206.5q-181 0 -305.5 100t-155.5 268h140q27 -112 113.5 -179t209.5 -67q190 0 296 166.5t114 470.5q1 6 -2.5 18t-3.5 15h-3h-3 q-47 -120 -158.5 -192.5t-252.5 -72.5q-207 0 -341.5 135.5t-134.5 342.5zM264 980q0 -158 101 -260.5t259 -102.5q155 0 260 102.5t105 252.5q0 161 -104.5 270.5t-259.5 109.5q-154 0 -257.5 -107t-103.5 -265z" />
<glyph unicode=":" horiz-adv-x="593" d="M186 100q0 46 32.5 78t78.5 32q45 0 77.5 -32t32.5 -78q0 -45 -32.5 -77.5t-77.5 -32.5q-46 0 -78.5 32.5t-32.5 77.5zM186 874q0 46 32.5 78t78.5 32q45 0 77.5 -32t32.5 -78t-32.5 -78.5t-77.5 -32.5q-46 0 -78.5 32.5t-32.5 78.5z" />
<glyph unicode=";" horiz-adv-x="593" d="M133 -339l85 531h162l-132 -531h-115zM186 874q0 46 32.5 78t78.5 32q45 0 77.5 -32t32.5 -78t-32.5 -78.5t-77.5 -32.5q-46 0 -78.5 32.5t-32.5 78.5z" />
<glyph unicode="&#x3c;" d="M228 522v109l865 531v-143l-733 -437v-12l733 -436v-143z" />
<glyph unicode="=" d="M163 331v115h995v-115h-995zM163 714v115h995v-115h-995z" />
<glyph unicode="&#x3e;" d="M228 -9v143l732 436v12l-732 437v143l865 -531v-109z" />
<glyph unicode="?" horiz-adv-x="1020" d="M82 1079q9 165 120 271t299 106q179 0 294.5 -102t115.5 -256q0 -108 -52.5 -190.5t-158.5 -150.5q-98 -63 -133 -115.5t-35 -136.5v-75h-133v94q-1 99 45 169t153 138q95 62 134 120.5t39 140.5q0 107 -77 176t-197 69t-197 -70t-87 -188h-130zM361 101q0 51 33 84.5 t84 33.5q50 0 83 -33.5t33 -84.5q0 -50 -33 -83.5t-83 -33.5q-51 0 -84 33.5t-33 83.5z" />
<glyph unicode="@" horiz-adv-x="1871" d="M138 604q0 242 104 431t291.5 294t427.5 105q233 0 415.5 -94t283.5 -263.5t101 -386.5q0 -242 -94 -382t-257 -140q-93 0 -155.5 51t-70.5 133h-13q-34 -85 -101 -131t-158 -46q-155 0 -252 117t-97 305q0 184 97.5 300t251.5 116q84 0 152 -44t96 -117h13v141h116v-575 q0 -72 36.5 -110t104.5 -38q103 0 162 113t59 309q0 188 -88 334.5t-247 227.5t-364 81q-151 0 -282 -55t-224 -152t-146 -233.5t-53 -294.5q0 -331 199 -532t526 -201q223 0 332 44v-99q-132 -44 -333 -44q-378 0 -605.5 228.5t-227.5 607.5zM686 594q0 -142 66 -226 t176 -84q111 0 177 86t66 229q0 141 -65.5 224t-176.5 83q-110 0 -176.5 -85.5t-66.5 -226.5z" />
<glyph unicode="A" horiz-adv-x="1363" d="M74 0l540 1443h136l539 -1443h-144l-160 442h-606l-160 -442h-145zM420 560h524l-256 704h-13z" />
<glyph unicode="B" horiz-adv-x="1319" d="M185 0v1443h519q199 0 314 -95.5t115 -260.5q0 -121 -74 -209.5t-190 -108.5v-13q153 -17 245.5 -113t92.5 -244q0 -189 -129 -294t-363 -105h-530zM322 121h374q181 0 276 73t95 212q0 137 -100 209.5t-288 72.5h-357v-567zM322 807h323q168 0 259 66.5t91 191.5 q0 121 -84.5 189t-232.5 68h-356v-515z" />
<glyph unicode="C" horiz-adv-x="1455" d="M127 721q0 347 171 549.5t464 202.5q147 0 271.5 -60.5t205 -168t99.5 -242.5h-139q-31 153 -152.5 248.5t-284.5 95.5q-227 0 -361 -169.5t-134 -455.5q0 -287 134 -455.5t362 -168.5q167 0 286.5 86t149.5 228h139q-31 -199 -188.5 -320t-386.5 -121q-294 0 -465 202 t-171 549z" />
<glyph unicode="D" horiz-adv-x="1471" d="M185 0v1443h475q327 0 506 -191t179 -530q0 -340 -178.5 -531t-506.5 -191h-475zM322 124h330q263 0 408 158t145 439t-145 439.5t-408 158.5h-330v-1195z" />
<glyph unicode="E" horiz-adv-x="1197" d="M185 0v1443h872v-124h-735v-519h698v-122h-698v-554h735v-124h-872z" />
<glyph unicode="F" horiz-adv-x="1155" d="M185 0v1443h856v-124h-719v-542h661v-122h-661v-655h-137z" />
<glyph unicode="G" horiz-adv-x="1506" d="M127 722q0 339 176 545t467 206q231 0 391.5 -123t199.5 -329h-139q-45 155 -163 240t-289 85q-229 0 -366 -170t-137 -454q0 -285 137.5 -455t368.5 -170q212 0 339 123.5t127 327.5v50h-440v121h576v-160q0 -268 -164 -428.5t-438 -160.5q-293 0 -469.5 205.5 t-176.5 546.5z" />
<glyph unicode="H" horiz-adv-x="1488" d="M185 0v1443h137v-642h844v642h137v-1443h-137v677h-844v-677h-137z" />
<glyph unicode="I" horiz-adv-x="507" d="M185 0v1443h137v-1443h-137z" />
<glyph unicode="J" horiz-adv-x="1088" d="M92 330h136q5 -103 78 -168t186 -65q131 0 202.5 78.5t71.5 222.5v1045h137v-1050q0 -197 -110 -310t-300 -113q-175 0 -287.5 100.5t-113.5 259.5z" />
<glyph unicode="K" horiz-adv-x="1311" d="M185 0v1443h137v-746h12l683 746h171l-578 -623l637 -820h-177l-555 725l-193 -210v-515h-137z" />
<glyph unicode="L" horiz-adv-x="1139" d="M185 0v1443h137v-1319h722v-124h-859z" />
<glyph unicode="M" horiz-adv-x="1761" d="M185 0v1443h157l533 -1256h12l531 1256h158v-1443h-128v1177h-10l-498 -1170h-119l-498 1170h-9v-1177h-129z" />
<glyph unicode="N" horiz-adv-x="1494" d="M185 0v1443h135l841 -1198h13v1198h135v-1443h-132l-844 1199h-13v-1199h-135z" />
<glyph unicode="O" horiz-adv-x="1561" d="M127 722q0 346 176 548.5t478 202.5q303 0 477.5 -202t174.5 -549t-174.5 -549.5t-477.5 -202.5q-304 0 -479 202.5t-175 549.5zM267 722q0 -286 138 -455.5t376 -169.5q237 0 374.5 169.5t137.5 455.5q0 287 -137.5 455.5t-374.5 168.5q-236 0 -375 -168.5t-139 -455.5z " />
<glyph unicode="P" horiz-adv-x="1272" d="M185 0v1443h513q207 0 334.5 -125t127.5 -327q0 -199 -129 -323t-335 -124h-374v-544h-137zM322 666h343q167 0 261.5 86.5t94.5 238.5q0 156 -93.5 243t-262.5 87h-343v-655z" />
<glyph unicode="Q" horiz-adv-x="1561" d="M127 721q0 348 176 550t478 202q301 0 476.5 -202.5t175.5 -549.5q0 -219 -70 -384t-200 -253l183 -253h-154l-140 191q-122 -52 -271 -52q-304 0 -479 201t-175 550zM267 721q0 -288 139 -456t376 -168q104 0 192 35l-194 263h155l148 -198q101 73 155.5 208.5 t54.5 315.5q0 287 -138.5 456t-373.5 169q-236 0 -375 -169t-139 -456z" />
<glyph unicode="R" horiz-adv-x="1309" d="M185 0v1443h517q211 0 336 -114.5t125 -307.5q0 -153 -82 -261.5t-227 -146.5l350 -613h-160l-332 591h-21h-369v-591h-137zM322 713h369q157 0 244.5 80t87.5 224q0 142 -90 223t-248 81h-363v-608z" />
<glyph unicode="S" horiz-adv-x="1284" d="M115 375h138q14 -124 126.5 -202t277.5 -78q161 0 266 80t105 201q0 102 -77.5 170t-244.5 109l-165 42q-203 50 -294 139.5t-91 236.5q0 176 137.5 288t356.5 112q206 0 345 -108.5t150 -274.5h-138q-17 116 -114.5 187t-246.5 71q-155 0 -252.5 -76.5t-97.5 -194.5 q0 -94 72 -153.5t237 -100.5l143 -36q223 -55 321.5 -148.5t98.5 -247.5q0 -189 -143.5 -305t-379.5 -116q-224 0 -370.5 112t-159.5 293z" />
<glyph unicode="T" horiz-adv-x="1280" d="M88 1319v124h1104v-124h-484v-1319h-136v1319h-484z" />
<glyph unicode="U" horiz-adv-x="1494" d="M189 500v943h136v-934q0 -183 114 -296t308 -113t308 113t114 296v934h137v-943q0 -237 -151 -381.5t-408 -144.5q-256 0 -407 144.5t-151 381.5z" />
<glyph unicode="V" horiz-adv-x="1363" d="M74 1443h144l457 -1264h13l457 1264h144l-539 -1443h-136z" />
<glyph unicode="W" horiz-adv-x="1956" d="M95 1443h142l317 -1230h9l347 1230h136l347 -1230h9l317 1230h142l-397 -1443h-127l-354 1205h-10l-354 -1205h-127z" />
<glyph unicode="X" horiz-adv-x="1366" d="M95 0l504 724l-500 719h165l418 -609h11l422 609h156l-508 -724l500 -719h-164l-416 606h-11l-421 -606h-156z" />
<glyph unicode="Y" d="M75 1443h157l423 -680h12l423 680h156l-517 -819v-624h-136v624z" />
<glyph unicode="Z" horiz-adv-x="1328" d="M138 0v99l863 1208v12h-834v124h1011v-100l-860 -1207v-12h872v-124h-1052z" />
<glyph unicode="[" horiz-adv-x="733" d="M188 -238v1682h417v-106h-288v-1472h301v-104h-430z" />
<glyph unicode="\" horiz-adv-x="695" d="M67 1443h118l443 -1770h-116z" />
<glyph unicode="]" horiz-adv-x="733" d="M115 -134h302v1472h-289v106h416v-1682h-429v104z" />
<glyph unicode="^" horiz-adv-x="947" d="M106 787l298 645h140l298 -645h-127l-235 531h-12l-236 -531h-126z" />
<glyph unicode="_" horiz-adv-x="919" d="M-8 -122h935v-100h-935v100z" />
<glyph unicode="`" horiz-adv-x="999" d="M291 1594h168l250 -327h-149z" />
<glyph unicode="a" horiz-adv-x="1125" d="M106 298q0 140 100 220.5t288 93.5l337 22v104q0 116 -68.5 178t-199.5 62q-111 0 -186.5 -44.5t-94.5 -122.5h-133q19 128 133.5 206t284.5 78q189 0 292.5 -93.5t103.5 -262.5v-739h-126v185h-12q-49 -96 -143 -149.5t-213 -53.5q-160 0 -261.5 86.5t-101.5 229.5z M241 300q0 -92 70 -147t180 -55q145 0 242.5 87.5t97.5 215.5v126l-319 -23q-271 -19 -271 -204z" />
<glyph unicode="b" horiz-adv-x="1252" d="M179 0v1506h131v-638h12q45 105 143 166t220 61q205 0 329 -152t124 -404q0 -251 -124.5 -404t-328.5 -153q-124 0 -222 62t-146 171h-13v-215h-125zM307 539q0 -199 96 -318.5t255 -119.5t252 118.5t93 320.5q0 201 -93 319t-252 118t-255 -119.5t-96 -318.5z" />
<glyph unicode="c" horiz-adv-x="1145" d="M115 542q0 253 131.5 403t353.5 150q180 0 298.5 -94.5t143.5 -240.5h-133q-26 96 -107.5 156.5t-201.5 60.5q-161 0 -255.5 -118t-94.5 -317q0 -202 95 -321.5t255 -119.5q120 0 201.5 55t106.5 154h133q-25 -148 -142 -238t-298 -90q-223 0 -354.5 151.5t-131.5 408.5z " />
<glyph unicode="d" horiz-adv-x="1256" d="M115 538q0 250 125.5 403.5t330.5 153.5q123 0 220 -61t143 -167h12v639h131v-1506h-126v215h-12q-48 -108 -146.5 -170.5t-221.5 -62.5q-206 0 -331 152.5t-125 403.5zM250 539q0 -201 94.5 -319.5t254.5 -118.5q159 0 254 119t95 319q0 198 -95.5 318t-253.5 120 q-160 0 -254.5 -119t-94.5 -319z" />
<glyph unicode="e" horiz-adv-x="1174" d="M115 538q0 254 130.5 405.5t350.5 151.5q215 0 339 -143t124 -390v-58h-809v-6q5 -183 99.5 -291t250.5 -108q114 0 194 43.5t115 123.5h133q-40 -132 -158 -208t-287 -76q-222 0 -352 150.5t-130 405.5zM251 612h671q-2 167 -91.5 267t-235.5 100q-147 0 -241 -100.5 t-103 -266.5z" />
<glyph unicode="f" horiz-adv-x="718" d="M67 966v111h174v119q0 297 297 297q45 0 98 -10v-111q-37 9 -91 9q-84 0 -128.5 -47t-44.5 -141v-116h254v-111h-254v-966h-131v966h-174z" />
<glyph unicode="g" horiz-adv-x="1242" d="M115 552q0 244 124 393.5t330 149.5q123 0 223 -63t144 -168h12v213h126v-1093q0 -176 -128 -282t-340 -106q-184 0 -301 75.5t-138 202.5h139q18 -75 98 -119t202 -44q156 0 246.5 76t90.5 207v242h-13q-48 -107 -142.5 -166t-218.5 -59q-207 0 -330.5 148.5 t-123.5 392.5zM250 552q0 -193 92.5 -308.5t252.5 -115.5q161 0 255.5 115t94.5 307q0 193 -95.5 310t-254.5 117q-160 0 -252.5 -115.5t-92.5 -309.5z" />
<glyph unicode="h" horiz-adv-x="1224" d="M179 0v1506h131v-623h12q44 100 138 156t222 56q182 0 282 -104t100 -291v-700h-131v667q0 153 -72 231.5t-213 78.5q-152 0 -245 -94t-93 -243v-640h-131z" />
<glyph unicode="i" horiz-adv-x="480" d="M143 1415q0 40 28.5 68.5t68.5 28.5t69 -28.5t29 -68.5q0 -41 -29 -69.5t-69 -28.5t-68.5 29t-28.5 69zM175 0v1077h131v-1077h-131z" />
<glyph unicode="j" horiz-adv-x="480" d="M-32 -266h27q98 0 139 42t41 140v1161h131v-1158q0 -156 -75 -227t-233 -71h-30v113zM143 1415q0 40 28.5 68.5t68.5 28.5t69 -28.5t29 -68.5q0 -41 -29 -69.5t-69 -28.5t-68.5 29t-28.5 69z" />
<glyph unicode="k" horiz-adv-x="1092" d="M179 0v1506h131v-933h12l526 504h164l-481 -462l503 -615h-168l-434 531l-122 -113v-418h-131z" />
<glyph unicode="l" horiz-adv-x="489" d="M179 0v1506h131v-1506h-131z" />
<glyph unicode="m" horiz-adv-x="1772" d="M169 0v1077h125v-194h13q35 99 117.5 155.5t193.5 56.5t190.5 -56.5t114.5 -155.5h13q42 98 131.5 155t204.5 57q162 0 251.5 -93.5t89.5 -264.5v-737h-131v707q0 132 -63.5 201t-185.5 69q-123 0 -200 -83.5t-77 -210.5v-683h-131v721q0 116 -68 186t-180 70 q-117 0 -197 -92t-80 -224v-661h-131z" />
<glyph unicode="n" horiz-adv-x="1206" d="M169 0v1077h125v-194h13q43 100 138 156t223 56q180 0 279 -103.5t99 -291.5v-700h-131v667q0 310 -281 310q-151 0 -242.5 -92.5t-91.5 -244.5v-640h-131z" />
<glyph unicode="o" horiz-adv-x="1208" d="M115 539q0 258 131.5 407t357.5 149t358 -149t132 -407t-132 -407.5t-358 -149.5t-357.5 149.5t-131.5 407.5zM250 539q0 -205 94 -321.5t260 -116.5t260 116.5t94 321.5t-94 321.5t-260 116.5t-260 -116.5t-94 -321.5z" />
<glyph unicode="p" horiz-adv-x="1242" d="M169 -351v1428h125v-220h12q50 111 148 174.5t221 63.5q205 0 329 -152.5t124 -403.5t-124.5 -404t-328.5 -153q-125 0 -221.5 59.5t-141.5 163.5h-12v-556h-131zM296 539q0 -198 96 -318t254 -120q160 0 253.5 118t93.5 319q0 202 -93.5 320.5t-252.5 118.5 q-158 0 -254.5 -120t-96.5 -318z" />
<glyph unicode="q" horiz-adv-x="1246" d="M115 539q0 250 125 403t330 153q122 0 221.5 -64.5t146.5 -173.5h12v220h127v-1428h-133v556h-12q-50 -106 -144.5 -164.5t-217.5 -58.5q-205 0 -330 153t-125 404zM250 539q0 -201 93.5 -319.5t252.5 -118.5q160 0 256 119.5t96 318.5q0 198 -96 318t-255 120t-253 -119 t-94 -319z" />
<glyph unicode="r" horiz-adv-x="754" d="M169 0v1077h125v-177h13q27 88 110 141.5t190 53.5q64 0 101 -9v-131q-45 13 -117 13q-125 0 -208 -84.5t-83 -211.5v-672h-131z" />
<glyph unicode="s" horiz-adv-x="1058" d="M111 270h136q22 -82 97 -129t191 -47q119 0 198 55t79 139q0 70 -51 113.5t-160 69.5l-163 39q-152 37 -223 103.5t-71 178.5q0 129 112.5 216t276.5 87q163 0 270 -75.5t125 -203.5h-129q-18 76 -89.5 121.5t-177.5 45.5q-107 0 -181.5 -53t-74.5 -133q0 -66 52 -107 t162 -67l148 -35q159 -38 234 -106.5t75 -183.5q0 -138 -119 -227t-297 -89q-176 0 -290 77.5t-130 210.5z" />
<glyph unicode="t" horiz-adv-x="724" d="M63 966v111h174v276h131v-276h256v-111h-256v-668q0 -99 40 -143.5t131 -44.5q47 0 80 3v-112q-40 -7 -94 -7q-155 0 -221.5 63.5t-66.5 210.5v698h-174z" />
<glyph unicode="u" horiz-adv-x="1207" d="M160 377v700h131v-667q0 -150 73.5 -229t211.5 -79q151 0 241 91t90 244v640h131v-1077h-125v194h-12q-40 -100 -134.5 -156t-223.5 -56q-180 0 -281.5 105t-101.5 290z" />
<glyph unicode="v" horiz-adv-x="1078" d="M67 1077h140l326 -934h12l325 934h141l-402 -1077h-140z" />
<glyph unicode="w" horiz-adv-x="1566" d="M67 1077h133l239 -914h12l266 914h131l266 -914h12l241 914h132l-307 -1077h-139l-265 894h-13l-265 -894h-138z" />
<glyph unicode="x" horiz-adv-x="1049" d="M70 1077h158l293 -430h12l291 430h151l-378 -530l382 -547h-157l-293 440h-12l-294 -440h-150l380 542z" />
<glyph unicode="y" horiz-adv-x="1079" d="M67 1077h142l326 -934h12l325 934h140l-419 -1129q-71 -190 -142 -256.5t-204 -66.5q-40 0 -61 4v113q21 -3 59 -3q75 0 120.5 42t83.5 145l22 67z" />
<glyph unicode="z" horiz-adv-x="1082" d="M131 0v100l660 854v12h-659v111h816v-101l-658 -853v-12h660v-111h-819z" />
<glyph unicode="{" horiz-adv-x="809" d="M132 540v158q98 0 137.5 48.5t39.5 169.5v268q0 172 87 251.5t277 79.5h56v-109h-54q-127 0 -184 -54.5t-57 -176.5v-313q0 -216 -174 -234v-17q174 -16 174 -237v-360q0 -119 58 -174.5t183 -55.5h54v-109h-56q-188 0 -276 82t-88 258v309q0 121 -39 168.5t-138 47.5z " />
<glyph unicode="|" horiz-adv-x="661" d="M273 -328v1771h115v-1771h-115z" />
<glyph unicode="}" horiz-adv-x="809" d="M81 -216h53q125 0 183 55.5t58 174.5v360q0 221 175 237v17q-175 18 -175 234v313q0 122 -56.5 176.5t-184.5 54.5h-53v109h56q189 0 276.5 -79.5t87.5 -251.5v-268q0 -122 39 -170t137 -48v-158q-98 0 -137 -47.5t-39 -168.5v-309q0 -176 -88 -258t-276 -82h-56v109z " />
<glyph unicode="~" horiz-adv-x="1204" d="M117 559q0 148 74.5 235t202.5 87q60 0 114.5 -28.5t125.5 -96.5q58 -57 98 -80.5t78 -23.5q68 0 110 53t47 147h122q1 -147 -76.5 -236.5t-204.5 -89.5q-64 0 -118.5 28t-125.5 96q-61 60 -98.5 82.5t-74.5 22.5q-67 0 -106.5 -51.5t-44.5 -144.5h-123z" />
<glyph unicode="&#xa2;" d="M164 715q0 230 126 378t326 170v183h131v-182q159 -17 273 -108.5t137 -223.5h-133q-32 99 -124 158t-217 59q-165 0 -274.5 -119.5t-109.5 -314.5q0 -198 110 -320t274 -122q135 0 225.5 57t114.5 153h133q-24 -135 -135 -222.5t-274 -102.5v-187h-131v189 q-200 22 -326 172t-126 383z" />
<glyph unicode="&#xa3;" d="M125 0v116q143 36 235.5 134t92.5 225q0 86 -33 190h-280v112h241q-26 70 -37 102t-24 91.5t-13 109.5q0 182 134 289t358 107q164 0 309 -51v-122q-138 51 -302 51q-163 0 -261.5 -75t-98.5 -197q0 -53 12 -111t24 -94t36 -100h467v-112h-429q32 -103 32 -185 q0 -110 -62 -203t-168 -147v-12h830v-118h-1063z" />
<glyph unicode="&#xa5;" d="M75 1443h156l423 -670h13l423 670h156l-472 -738h259v-106h-304v-184h304v-105h-304v-310h-137v310h-304v105h304v184h-304v106h259z" />
<glyph unicode="&#xa7;" horiz-adv-x="1037" d="M112 549q0 99 64 169t178 97v12q-230 79 -230 268q0 133 108 216.5t279 83.5q164 0 270 -75.5t123 -203.5h-132q-12 76 -83.5 121.5t-179.5 45.5q-112 0 -182.5 -50.5t-70.5 -130.5q0 -67 52.5 -111t167.5 -73l129 -34q166 -42 243 -110t77 -172t-72.5 -181t-190.5 -99 v-12q254 -60 254 -257q0 -133 -110 -218t-282 -85q-167 0 -278 79.5t-122 207.5h134q11 -78 86 -126t186 -48q113 0 184.5 51t71.5 131q0 67 -53 110.5t-169 72.5l-129 33q-167 43 -245 112.5t-78 175.5zM247 573q0 -145 212 -193l81 -18q108 1 179 61t71 149 q0 147 -211 193l-81 18q-107 -1 -179 -61.5t-72 -148.5z" />
<glyph unicode="&#xa8;" horiz-adv-x="998" d="M215 1354q0 43 30 72.5t72 29.5q43 0 72.5 -29.5t29.5 -72.5t-29.5 -72.5t-72.5 -29.5q-42 0 -72 29.5t-30 72.5zM579 1354q0 43 30 72.5t72 29.5q43 0 72.5 -29.5t29.5 -72.5t-29.5 -72.5t-72.5 -29.5q-42 0 -72 29.5t-30 72.5z" />
<glyph unicode="&#xa9;" horiz-adv-x="1742" d="M88 626q0 164 60.5 310t164.5 250t249.5 164t308.5 60q164 0 309 -60t249 -164t164.5 -249.5t60.5 -310.5q0 -164 -60.5 -309.5t-164.5 -249.5t-249 -164.5t-309 -60.5q-163 0 -308 60.5t-249 164.5t-165 249.5t-61 309.5zM198 626q0 -189 88.5 -344t243 -243t341.5 -88 q141 0 265.5 52t214 141.5t141.5 214.5t52 267t-52 267.5t-141 215t-214 141t-266 51.5t-265.5 -51.5t-214 -141t-141.5 -215t-52 -267.5zM486 630q0 194 108 308.5t286 114.5q141 0 239 -76.5t119 -196.5h-108q-21 79 -88 127t-162 48q-128 0 -206 -87.5t-78 -237.5 q0 -152 78 -241.5t206 -89.5q100 0 165 45.5t84 123.5h109q-21 -122 -117 -194t-240 -72q-178 0 -286.5 116t-108.5 312z" />
<glyph unicode="&#xaa;" horiz-adv-x="957" d="M108 800q0 118 84.5 186.5t243.5 78.5l265 18v83q0 87 -58.5 136t-161.5 49q-86 0 -143 -36t-69 -98h-126q13 112 105.5 177.5t236.5 65.5q159 0 249.5 -79.5t90.5 -218.5v-609h-119v142h-12q-38 -76 -115.5 -119.5t-175.5 -43.5q-132 0 -213.5 74t-81.5 194zM237 804 q0 -75 55 -120.5t145 -45.5q112 0 189 68.5t77 169.5v114l-250 -19q-216 -17 -216 -167z" />
<glyph unicode="&#xab;" horiz-adv-x="1363" d="M185 563v6l359 414h157l-357 -411v-13l357 -410h-157zM636 563v6l359 414h157l-357 -411v-13l357 -410h-158z" />
<glyph unicode="&#xac;" d="M183 563v114h954v-532h-114v418h-840z" />
<glyph unicode="&#xad;" horiz-adv-x="975" d="M159 520v124h656v-124h-656z" />
<glyph unicode="&#xae;" horiz-adv-x="1260" d="M115 963q0 142 68.5 261t187 187t259.5 68q106 0 201.5 -40.5t164 -109t109 -164t40.5 -202.5q0 -141 -68 -259.5t-186.5 -187t-260.5 -68.5q-215 0 -365 150t-150 365zM199 963q0 -180 125 -305.5t306 -125.5t306 125.5t125 305.5q0 182 -125 307t-306 125t-306 -125.5 t-125 -306.5zM437 717v515h232q77 0 126.5 -43.5t49.5 -113.5q0 -62 -33 -101.5t-89 -50.5l145 -206h-98l-138 195h-115v-195h-80zM517 981h130q110 0 110 91q0 42 -27.5 64.5t-80.5 22.5h-132v-178z" />
<glyph unicode="&#xb0;" horiz-adv-x="859" d="M119 1152q0 130 89 220.5t221 90.5t221.5 -90.5t89.5 -220.5q0 -131 -89 -221t-222 -90t-221.5 90t-88.5 221zM220 1152q0 -87 59 -149t150 -62t151 62t60 149q0 88 -60 149t-151 61q-90 0 -149.5 -61t-59.5 -149z" />
<glyph unicode="&#xb1;" d="M159 112v114h1002v-114h-1002zM159 671v105h444v309h115v-309h443v-105h-443v-317h-115v317h-444z" />
<glyph unicode="&#xb4;" horiz-adv-x="999" d="M273 1267l250 327h168l-269 -327h-149z" />
<glyph unicode="&#xb6;" horiz-adv-x="1316" d="M195 1004q0 193 133.5 316t341.5 123h156v-1638h-137v770h-20q-205 0 -339.5 122t-134.5 307zM984 -195v1638h137v-1638h-137z" />
<glyph unicode="&#xb7;" horiz-adv-x="630" d="M174 739q0 62 40 102t102 40q61 0 100.5 -40t39.5 -102t-39.5 -102t-100.5 -40q-62 0 -102 40t-40 102z" />
<glyph unicode="&#xb8;" horiz-adv-x="999" d="M315 -377q50 -18 127 -18q60 0 96 24t36 66q0 81 -155 81h-56v67l64 157h106l-57 -142q100 0 156.5 -41.5t56.5 -118.5q0 -81 -63 -131.5t-168 -50.5q-78 0 -143 20v87z" />
<glyph unicode="&#xba;" horiz-adv-x="1032" d="M107 996q0 214 110.5 339t298.5 125q189 0 299.5 -124.5t110.5 -339.5t-110.5 -339.5t-299.5 -124.5t-299 124.5t-110 339.5zM239 996q0 -166 74 -259t203 -93q130 0 204 93t74 259q0 167 -74 260t-204 93q-129 0 -203 -93.5t-74 -259.5z" />
<glyph unicode="&#xbb;" horiz-adv-x="1363" d="M211 149l357 410v13l-357 411h157l359 -414v-6l-358 -414h-158zM662 149l357 410v13l-357 411h157l359 -414v-6l-359 -414h-157z" />
<glyph unicode="&#xf7;" d="M169 523v114h983v-114h-983zM554 223q0 46 30.5 76.5t76.5 30.5q45 0 75.5 -30.5t30.5 -76.5t-30.5 -76.5t-75.5 -30.5q-46 0 -76.5 30.5t-30.5 76.5zM554 929q0 46 30.5 76t76.5 30q45 0 75.5 -30t30.5 -76t-30.5 -76.5t-75.5 -30.5q-46 0 -76.5 30.5t-30.5 76.5z" />
<glyph unicode="&#x192;" d="M88 1v127q90 -29 187 -29q218 0 253 224l64 418h-362v111h378l42 265q26 168 125 258.5t258 90.5q109 0 195 -20v-120q-71 20 -180 20q-230 0 -266 -238l-40 -256h395v-111h-412l-66 -429q-51 -334 -373 -334q-102 0 -198 23z" />
<glyph unicode="&#x2c6;" horiz-adv-x="1000" d="M148 1228l275 332h154l275 -332h-153l-193 243h-12l-193 -243h-153z" />
<glyph unicode="&#x2da;" horiz-adv-x="1000" d="M287 1439q0 88 62 149t151 61t151 -61t62 -149q0 -89 -62 -150t-151 -61t-151 61t-62 150zM375 1439q0 -53 36 -89.5t89 -36.5t89 36.5t36 89.5t-36 89t-89 36t-89 -36t-36 -89z" />
<glyph unicode="&#x2dc;" horiz-adv-x="999" d="M148 1252q0 121 56 191.5t153 70.5q43 0 79 -16.5t60.5 -39.5t46.5 -46t45.5 -39.5t47.5 -16.5q104 0 104 158h110q0 -121 -56 -191.5t-153 -70.5q-42 0 -78.5 16.5t-60.5 39.5t-46 46t-45.5 39.5t-47.5 16.5q-104 0 -104 -158h-111z" />
<glyph unicode="&#x3a9;" horiz-adv-x="1584" d="M135 0v124h366v12q-175 91 -270 262.5t-95 388.5q0 201 82 357.5t231.5 242.5t342.5 86q293 0 474.5 -190t181.5 -496q0 -217 -95.5 -389t-269.5 -262v-12h366v-124h-527v161q386 199 386 623q0 256 -140.5 409t-375.5 153q-236 0 -376 -153t-140 -409q0 -424 386 -623 v-161h-527z" />
<glyph unicode="&#x3c0;" horiz-adv-x="1363" d="M80 959v118h1173v-118h-217v-716q0 -76 26 -106.5t90 -30.5q28 0 56 6v-112q-38 -10 -87 -10q-113 0 -163 60t-50 191v718h-501v-959h-128v959h-199z" />
<glyph unicode="&#x401;" horiz-adv-x="1217" d="M195 0v1443h872v-124h-735v-519h698v-122h-698v-554h735v-124h-872zM347 1670q0 43 30 72.5t72 29.5q43 0 72.5 -29.5t29.5 -72.5t-29.5 -72.5t-72.5 -29.5q-42 0 -72 29.5t-30 72.5zM711 1670q0 43 30 72.5t72 29.5q43 0 72.5 -29.5t29.5 -72.5t-29.5 -72.5t-72.5 -29.5 q-42 0 -72 29.5t-30 72.5z" />
<glyph unicode="&#x402;" horiz-adv-x="1701" d="M98 1320v123h1104v-123h-484v-579h14q139 149 368 149q149 0 256 -62.5t158.5 -164.5t51.5 -230q0 -198 -113.5 -322.5t-306.5 -124.5q-36 0 -66.5 4t-42.5 8l-12 3v123q40 -13 119 -13q126 0 205.5 85t79.5 236q0 145 -87.5 239.5t-249.5 94.5q-68 0 -129 -17 t-99.5 -39.5t-72 -53t-47.5 -50t-26 -38.5v-568h-136v1320h-484z" />
<glyph unicode="&#x403;" horiz-adv-x="1153" d="M195 0v1443h843v-125h-705v-1318h-138zM496 1577l310 297h174l-326 -297h-158z" />
<glyph unicode="&#x404;" horiz-adv-x="1491" d="M137 721q0 346 173.5 549t469.5 203q149 0 275.5 -60.5t207.5 -168t100 -242.5h-138q-32 153 -155.5 248.5t-289.5 95.5q-213 0 -346.5 -146.5t-152.5 -398.5h681v-124h-683q11 -267 145.5 -423.5t356.5 -156.5q171 0 292.5 86t151.5 228h138q-30 -199 -190 -320 t-392 -121q-298 0 -471 202t-173 549z" />
<glyph unicode="&#x405;" horiz-adv-x="1304" d="M125 375h138q14 -124 126.5 -202t277.5 -78q161 0 266 80t105 201q0 102 -77.5 170t-244.5 109l-165 42q-203 50 -294 139.5t-91 236.5q0 176 137.5 288t356.5 112q206 0 345 -108.5t150 -274.5h-138q-17 116 -114.5 187t-246.5 71q-155 0 -252.5 -76.5t-97.5 -194.5 q0 -94 72 -153.5t237 -100.5l143 -36q223 -55 321.5 -148.5t98.5 -247.5q0 -189 -143.5 -305t-379.5 -116q-224 0 -370.5 112t-159.5 293z" />
<glyph unicode="&#x406;" horiz-adv-x="527" d="M195 0v1443h137v-1443h-137z" />
<glyph unicode="&#x407;" horiz-adv-x="527" d="M-20 1670q0 43 30 72.5t72 29.5q43 0 72.5 -29.5t29.5 -72.5t-29.5 -72.5t-72.5 -29.5q-42 0 -72 29.5t-30 72.5zM195 0v1443h137v-1443h-137zM344 1670q0 43 30 72.5t72 29.5q43 0 72.5 -29.5t29.5 -72.5t-29.5 -72.5t-72.5 -29.5q-42 0 -72 29.5t-30 72.5z" />
<glyph unicode="&#x408;" horiz-adv-x="1108" d="M102 330h136q5 -103 78 -168t186 -65q131 0 202.5 78.5t71.5 222.5v1045h137v-1050q0 -197 -110 -310t-300 -113q-175 0 -287.5 100.5t-113.5 259.5z" />
<glyph unicode="&#x409;" horiz-adv-x="2148" d="M42 1v123q19 -7 54 -7q58 0 98.5 29t64 86t35.5 124.5t17 160.5l54 926h837v-558h368q207 0 335.5 -122.5t128.5 -320.5q0 -197 -128.5 -319.5t-334.5 -122.5h-506v1319h-574l-50 -809q-7 -123 -27.5 -214.5t-58.5 -162t-100 -106.5t-148 -36q-35 0 -65 10zM1202 124h336 q168 0 262 84t94 234t-94.5 235t-261.5 85h-336v-638z" />
<glyph unicode="&#x40a;" horiz-adv-x="2229" d="M192 0v1443h137v-642h810v642h137v-642h367q207 0 335.5 -108.5t128.5 -283.5q0 -183 -128 -296t-334 -113h-506v677h-810v-677h-137zM1276 124h336q167 0 261 75.5t94 209.5q0 126 -94 197t-261 71h-336v-553z" />
<glyph unicode="&#x40b;" horiz-adv-x="1736" d="M98 1319v124h1104v-124h-484v-576h14q59 64 153 105.5t213 41.5q146 0 252.5 -64t159.5 -173t53 -250v-403h-137v392q0 171 -89 272.5t-252 101.5q-67 0 -126.5 -17t-97.5 -39t-70.5 -53.5t-46.5 -50t-26 -38.5v-568h-136v1319h-484z" />
<glyph unicode="&#x40c;" horiz-adv-x="1332" d="M202 0v1443h137v-650h40l655 650h174l-711 -697l774 -746h-184l-708 684h-40v-684h-137zM534 1577l310 297h174l-326 -297h-158z" />
<glyph unicode="&#x40e;" horiz-adv-x="1293" d="M84 1443h148l419 -965h12l403 965h142l-453 -1044q-37 -84 -65.5 -140t-66.5 -111.5t-78.5 -87t-94.5 -51t-119 -19.5q-51 0 -75 12v124q36 -9 75 -9q84 0 143 51.5t111 155.5zM340 1851h120q0 -83 54.5 -132.5t139.5 -49.5q87 0 141.5 49.5t54.5 132.5h120 q0 -128 -86 -201t-230 -73q-143 0 -228.5 73t-85.5 201z" />
<glyph unicode="&#x40f;" horiz-adv-x="1490" d="M195 0v1443h137v-1319h826v1319h137v-1443h-486v-285h-128v285h-486z" />
<glyph unicode="&#x410;" horiz-adv-x="1383" d="M84 0l540 1443h136l539 -1443h-144l-160 442h-606l-160 -442h-145zM430 560h524l-256 704h-13z" />
<glyph unicode="&#x411;" horiz-adv-x="1281" d="M195 0v1443h830v-124h-693v-467h364q206 0 335 -118.5t129 -308.5t-128.5 -307.5t-334.5 -117.5h-502zM332 124h333q167 0 261 79.5t94 221.5t-94 222.5t-261 80.5h-333v-604z" />
<glyph unicode="&#x412;" horiz-adv-x="1339" d="M195 0v1443h519q199 0 314 -95.5t115 -260.5q0 -121 -74 -209.5t-190 -108.5v-13q153 -17 245.5 -113t92.5 -244q0 -189 -129 -294t-363 -105h-530zM332 121h374q181 0 276 73t95 212q0 137 -100 209.5t-288 72.5h-357v-567zM332 807h323q168 0 259 66.5t91 191.5 q0 121 -84.5 189t-232.5 68h-356v-515z" />
<glyph unicode="&#x413;" horiz-adv-x="1153" d="M195 0v1443h843v-125h-705v-1318h-138z" />
<glyph unicode="&#x414;" horiz-adv-x="1478" d="M40 124h102q75 39 111 135t45 249l57 935h867v-1319h183v-409h-127v285h-1110v-285h-128v409zM319 124h767v1195h-608l-50 -816q-8 -136 -31.5 -223.5t-77.5 -145.5v-10z" />
<glyph unicode="&#x415;" horiz-adv-x="1217" d="M195 0v1443h872v-124h-735v-519h698v-122h-698v-554h735v-124h-872z" />
<glyph unicode="&#x416;" horiz-adv-x="2017" d="M72 0l713 744l-657 699h172l600 -652h39v652h137v-652h40l599 652h170l-655 -696l716 -747h-180l-650 685h-40v-685h-137v685h-39l-651 -685h-177z" />
<glyph unicode="&#x417;" horiz-adv-x="1247" d="M105 369h133q8 -120 114 -198t265 -78q167 0 271 84.5t104 215.5q0 134 -101.5 211t-285.5 77h-191v122h186q147 0 237 78t90 202q0 119 -86 193.5t-234 74.5q-143 0 -235 -73t-103 -195h-133q12 177 141.5 283.5t334.5 106.5q199 0 326 -107.5t127 -271.5 q0 -124 -74.5 -216t-200.5 -120v-12q154 -13 248 -108.5t94 -247.5q0 -178 -147 -299t-367 -121q-219 0 -362 112t-151 287z" />
<glyph unicode="&#x418;" horiz-adv-x="1514" d="M195 0v1443h135v-1221h13l841 1221h135v-1443h-135v1218h-13l-841 -1218h-135z" />
<glyph unicode="&#x419;" horiz-adv-x="1514" d="M195 0v1443h135v-1221h13l841 1221h135v-1443h-135v1218h-13l-841 -1218h-135zM434 1851h120q0 -83 54.5 -132.5t139.5 -49.5q87 0 141.5 49.5t54.5 132.5h120q0 -128 -86 -201t-230 -73q-143 0 -228.5 73t-85.5 201z" />
<glyph unicode="&#x41a;" horiz-adv-x="1335" d="M195 0v1443h137v-650h40l655 650h174l-711 -697l774 -746h-184l-708 684h-40v-684h-137z" />
<glyph unicode="&#x41b;" horiz-adv-x="1396" d="M38 1v123q19 -7 54 -7q58 0 98.5 29t64 86t35.5 124.5t17 160.5l55 926h839v-1443h-136v1319h-578l-50 -809q-7 -124 -27 -214.5t-58 -161.5t-100.5 -107t-148.5 -36q-35 0 -65 10z" />
<glyph unicode="&#x41c;" horiz-adv-x="1781" d="M195 0v1443h157l533 -1256h12l531 1256h158v-1443h-128v1177h-10l-498 -1170h-119l-498 1170h-9v-1177h-129z" />
<glyph unicode="&#x41d;" horiz-adv-x="1508" d="M195 0v1443h137v-642h844v642h137v-1443h-137v677h-844v-677h-137z" />
<glyph unicode="&#x41e;" horiz-adv-x="1581" d="M137 722q0 346 176 548.5t478 202.5q303 0 477.5 -202t174.5 -549t-174.5 -549.5t-477.5 -202.5q-304 0 -479 202.5t-175 549.5zM277 722q0 -286 138 -455.5t376 -169.5q237 0 374.5 169.5t137.5 455.5q0 287 -137.5 455.5t-374.5 168.5q-236 0 -375 -168.5t-139 -455.5z " />
<glyph unicode="&#x41f;" horiz-adv-x="1490" d="M195 0v1443h1100v-1443h-135v1318h-827v-1318h-138z" />
<glyph unicode="&#x420;" horiz-adv-x="1292" d="M195 0v1443h513q207 0 334.5 -125t127.5 -327q0 -199 -129 -323t-335 -124h-374v-544h-137zM332 666h343q167 0 261.5 86.5t94.5 238.5q0 156 -93.5 243t-262.5 87h-343v-655z" />
<glyph unicode="&#x421;" horiz-adv-x="1491" d="M137 721q0 347 171 549.5t464 202.5q147 0 271.5 -60.5t205 -168t99.5 -242.5h-139q-31 153 -152.5 248.5t-284.5 95.5q-227 0 -361 -169.5t-134 -455.5q0 -287 134 -455.5t362 -168.5q167 0 286.5 86t149.5 228h139q-31 -199 -188.5 -320t-386.5 -121q-294 0 -465 202 t-171 549z" />
<glyph unicode="&#x422;" horiz-adv-x="1300" d="M98 1319v124h1104v-124h-484v-1319h-136v1319h-484z" />
<glyph unicode="&#x423;" horiz-adv-x="1293" d="M84 1443h148l419 -965h12l403 965h142l-453 -1044q-37 -84 -65.5 -140t-66.5 -111.5t-78.5 -87t-94.5 -51t-119 -19.5q-51 0 -75 12v124q36 -9 75 -9q84 0 143 51.5t111 155.5z" />
<glyph unicode="&#x424;" horiz-adv-x="1671" d="M122 725q0 268 176 425t470 163v147h135v-147q295 -5 470 -162.5t175 -425.5q0 -269 -175.5 -426t-469.5 -162v-154h-135v154q-295 5 -470.5 162.5t-175.5 425.5zM260 725q0 -210 137 -335t371 -130v930q-232 -5 -370 -130t-138 -335zM903 260q232 5 369.5 130t137.5 335 t-137 335t-370 130v-930z" />
<glyph unicode="&#x425;" horiz-adv-x="1386" d="M105 0l504 724l-500 719h165l418 -609h11l422 609h156l-508 -724l500 -719h-164l-416 606h-11l-421 -606h-156z" />
<glyph unicode="&#x426;" horiz-adv-x="1549" d="M195 0v1443h137v-1319h824v1319h137v-1319h183v-409h-128v285h-1153z" />
<glyph unicode="&#x427;" horiz-adv-x="1381" d="M142 1061v382h137v-372q0 -176 99 -283.5t270 -107.5q148 0 255 63t146 142v558h136v-1443h-136v704h-12q-64 -66 -162.5 -108.5t-225.5 -42.5q-234 0 -370.5 142.5t-136.5 365.5z" />
<glyph unicode="&#x428;" horiz-adv-x="1936" d="M195 0v1443h137v-1319h568v1319h136v-1319h568v1319h137v-1443h-1546z" />
<glyph unicode="&#x429;" horiz-adv-x="1997" d="M195 0v1443h137v-1319h568v1319h136v-1319h568v1319h137v-1319h183v-409h-128v285h-1601z" />
<glyph unicode="&#x42a;" horiz-adv-x="1514" d="M91 1319v124h476v-558h368q207 0 335.5 -122.5t128.5 -320.5q0 -197 -128.5 -319.5t-334.5 -122.5h-505v1319h-340zM567 124h337q167 0 261 84t94 234t-94.5 235t-260.5 85h-337v-638z" />
<glyph unicode="&#x42b;" horiz-adv-x="1727" d="M205 0v1443h137v-558h367q207 0 335.5 -122.5t128.5 -320.5q0 -197 -128 -319.5t-334 -122.5h-506zM342 124h336q167 0 261.5 84t94.5 234t-94.5 235t-261.5 85h-336v-638zM1395 0v1443h137v-1443h-137z" />
<glyph unicode="&#x42c;" horiz-adv-x="1285" d="M195 0v1443h137v-558h367q207 0 335.5 -122.5t128.5 -320.5q0 -197 -128 -319.5t-334 -122.5h-506zM332 124h336q167 0 261.5 84t94.5 234t-94.5 235t-261.5 85h-336v-638z" />
<glyph unicode="&#x42d;" horiz-adv-x="1491" d="M127 411h139q30 -142 154 -228t298 -86q218 0 351 155.5t143 424.5h-683v124h681q-18 253 -149.5 399t-341.5 146q-169 0 -295.5 -95.5t-157.5 -248.5h-139q19 135 101.5 243t211 168t279.5 60q292 0 463 -202t171 -548q0 -348 -170.5 -550.5t-464.5 -202.5 q-236 0 -398 121t-193 320z" />
<glyph unicode="&#x42e;" horiz-adv-x="2033" d="M195 0v1443h137v-642h287q20 313 190 492.5t448 179.5q296 0 467 -202t171 -549t-170.5 -549.5t-467.5 -202.5q-289 0 -459 189.5t-181 517.5h-285v-677h-137zM756 722q0 -286 134.5 -455.5t366.5 -169.5q230 0 364 169.5t134 455.5q0 287 -134 455.5t-364 168.5 q-231 0 -366 -168.5t-135 -455.5z" />
<glyph unicode="&#x42f;" horiz-adv-x="1342" d="M116 0l418 596q-160 31 -256.5 142t-96.5 274q0 193 127.5 312t335.5 119h502v-1443h-136v579h-327l-406 -579h-161zM321 1012q0 -146 94 -227.5t261 -81.5h334v616h-334q-168 0 -261.5 -81t-93.5 -226z" />
<glyph unicode="&#x430;" horiz-adv-x="1166" d="M119 298q0 140 100 220.5t288 93.5l337 22v104q0 116 -68.5 178t-199.5 62q-111 0 -186.5 -44.5t-94.5 -122.5h-133q19 128 133.5 206t284.5 78q189 0 292.5 -93.5t103.5 -262.5v-739h-126v185h-12q-49 -96 -143 -149.5t-213 -53.5q-160 0 -261.5 86.5t-101.5 229.5z M254 300q0 -92 70 -147t180 -55q145 0 242.5 87.5t97.5 215.5v126l-319 -23q-271 -19 -271 -204z" />
<glyph unicode="&#x431;" horiz-adv-x="1235" d="M125 617q0 161 14.5 282.5t51.5 227t99 173t158 107t227 43.5q32 0 134 6q145 9 236 49v-117q-1 0 -7 -3.5t-14 -7.5t-21 -9t-31 -10t-40 -9.5t-52 -8t-64 -5.5q-60 -7 -137 -7q-117 -3 -197.5 -36t-130 -99.5t-75 -152t-38.5 -209.5h12q52 108 151 170t234 62 q215 0 345 -143.5t130 -388.5q0 -255 -133 -402.5t-360 -147.5q-235 0 -363.5 158.5t-128.5 477.5zM260 531q0 -202 95 -317t262 -115t262.5 115t95.5 317q0 194 -95.5 304t-262.5 110t-262 -110t-95 -304z" />
<glyph unicode="&#x432;" horiz-adv-x="1118" d="M178 0v1077h436q151 0 237 -73t86 -198q0 -87 -53 -153.5t-136 -82.5v-13q106 -12 173.5 -80.5t67.5 -170.5q0 -144 -97.5 -225t-273.5 -81h-440zM309 111h306q119 0 181.5 50.5t62.5 146.5q0 193 -270 193h-280v-390zM309 612h269q112 0 171 47.5t59 134.5q0 80 -54 126 t-155 46h-290v-354z" />
<glyph unicode="&#x433;" horiz-adv-x="956" d="M178 0v1077h683v-111h-552v-966h-131z" />
<glyph unicode="&#x434;" horiz-adv-x="1257" d="M44 111h87q108 70 131 357q6 59 43 609h715v-966h174v-396h-124v285h-902v-285h-124v396zM288 111h601v855h-467q-2 -45 -17.5 -252.5t-19.5 -250.5q-21 -249 -97 -340v-12z" />
<glyph unicode="&#x435;" horiz-adv-x="1194" d="M125 538q0 254 130.5 405.5t350.5 151.5q215 0 339 -143t124 -390v-58h-809v-6q5 -183 99.5 -291t250.5 -108q114 0 194 43.5t115 123.5h133q-40 -132 -158 -208t-287 -76q-222 0 -352 150.5t-130 405.5zM261 612h671q-2 167 -91.5 267t-235.5 100q-147 0 -241 -100.5 t-103 -266.5z" />
<glyph unicode="&#x436;" horiz-adv-x="1602" d="M79 0l503 559l-482 518h161l426 -474h48v474h129v-474h47l426 474h160l-480 -515l505 -562h-168l-443 502h-47v-502h-129v502h-48l-442 -502h-166z" />
<glyph unicode="&#x437;" horiz-adv-x="1062" d="M116 275h135q18 -83 92.5 -132.5t191.5 -49.5q127 0 200.5 56.5t73.5 151.5q0 201 -278 201h-168v111h168q115 0 176.5 48.5t61.5 138.5q0 82 -61 132t-173 50t-183.5 -50t-86.5 -132h-130q20 133 126 214t274 81q171 0 267 -78t96 -209q0 -87 -53.5 -152.5t-138.5 -83.5 v-12q108 -19 170.5 -84.5t62.5 -167.5q0 -149 -111 -238t-293 -89q-174 0 -287 80.5t-132 213.5z" />
<glyph unicode="&#x438;" horiz-adv-x="1236" d="M178 0v1077h131v-868h13l605 868h131v-1077h-131v868h-12l-606 -868h-131z" />
<glyph unicode="&#x439;" horiz-adv-x="1236" d="M178 0v1077h131v-868h13l605 868h131v-1077h-131v868h-12l-606 -868h-131zM288 1538h120q0 -88 53.5 -147t141.5 -59q89 0 142.5 59t53.5 147h120q0 -132 -87 -215t-229 -83t-228.5 83t-86.5 215z" />
<glyph unicode="&#x43a;" horiz-adv-x="1092" d="M178 0v1077h131v-472h42l479 472h162l-531 -517l555 -560h-173l-492 500h-42v-500h-131z" />
<glyph unicode="&#x43b;" horiz-adv-x="1181" d="M50 1v121q24 -8 54 -8q41 0 71.5 25t49.5 74t30 110t17 145q4 43 21.5 301.5t20.5 307.5h689v-1077h-131v966h-439q-17 -308 -36 -503q-9 -112 -25.5 -192t-48.5 -146.5t-85 -100t-128 -33.5q-33 0 -60 10z" />
<glyph unicode="&#x43c;" horiz-adv-x="1522" d="M178 0v1077h158l423 -895h12l421 895h152v-1077h-131v837h-15l-384 -816h-103l-388 816h-14v-837h-131z" />
<glyph unicode="&#x43d;" horiz-adv-x="1223" d="M178 0v1077h131v-462h605v462h131v-1077h-131v504h-605v-504h-131z" />
<glyph unicode="&#x43e;" horiz-adv-x="1228" d="M125 539q0 258 131.5 407t357.5 149t358 -149t132 -407t-132 -407.5t-358 -149.5t-357.5 149.5t-131.5 407.5zM260 539q0 -205 94 -321.5t260 -116.5t260 116.5t94 321.5t-94 321.5t-260 116.5t-260 -116.5t-94 -321.5z" />
<glyph unicode="&#x43f;" horiz-adv-x="1213" d="M178 0v1077h857v-1077h-131v966h-595v-966h-131z" />
<glyph unicode="&#x440;" horiz-adv-x="1262" d="M178 -351v1428h125v-220h12q50 111 148 174.5t221 63.5q205 0 329 -152.5t124 -403.5t-124.5 -404t-328.5 -153q-125 0 -221.5 59.5t-141.5 163.5h-12v-556h-131zM305 539q0 -198 96 -318t254 -120q160 0 253.5 118t93.5 319q0 202 -93.5 320.5t-252.5 118.5 q-158 0 -254.5 -120t-96.5 -318z" />
<glyph unicode="&#x441;" horiz-adv-x="1165" d="M125 542q0 253 131.5 403t353.5 150q180 0 298.5 -94.5t143.5 -240.5h-133q-26 96 -107.5 156.5t-201.5 60.5q-161 0 -255.5 -118t-94.5 -317q0 -202 95 -321.5t255 -119.5q120 0 201.5 55t106.5 154h133q-25 -148 -142 -238t-298 -90q-223 0 -354.5 151.5t-131.5 408.5z " />
<glyph unicode="&#x442;" horiz-adv-x="1033" d="M83 966v111h867v-111h-368v-966h-131v966h-368z" />
<glyph unicode="&#x443;" horiz-adv-x="1099" d="M77 1077h142l326 -934h12l325 934h140l-419 -1129q-71 -190 -142 -256.5t-204 -66.5q-40 0 -61 4v113q21 -3 59 -3q75 0 120.5 42t83.5 145l22 67z" />
<glyph unicode="&#x444;" horiz-adv-x="1507" d="M125 537q0 250 154 399t411 154v363h128v-363q256 -5 410 -154t154 -398q0 -250 -154.5 -399t-409.5 -154v-356h-128v356q-257 5 -411 154t-154 398zM258 537q0 -199 117 -315.5t315 -122.5v877q-198 -5 -315 -122.5t-117 -316.5zM818 99q197 5 314 122.5t117 316.5 t-117 316t-314 122v-877z" />
<glyph unicode="&#x445;" horiz-adv-x="1069" d="M80 1077h158l293 -430h12l291 430h151l-378 -530l382 -547h-157l-293 440h-12l-294 -440h-150l380 542z" />
<glyph unicode="&#x446;" horiz-adv-x="1265" d="M178 0v1077h131v-966h588v966h131v-966h174v-396h-124v285h-900z" />
<glyph unicode="&#x447;" horiz-adv-x="1151" d="M158 779v298h131v-293q0 -127 66 -200t186 -73q111 0 187.5 46t113.5 103v417h131v-1077h-131v509h-14q-116 -116 -296 -116q-176 0 -275 105t-99 281z" />
<glyph unicode="&#x448;" horiz-adv-x="1678" d="M178 0v1077h131v-966h465v966h131v-966h464v966h131v-1077h-1322z" />
<glyph unicode="&#x449;" horiz-adv-x="1737" d="M178 0v1077h131v-966h465v966h131v-966h464v966h131v-966h175v-396h-124v285h-1373z" />
<glyph unicode="&#x44a;" horiz-adv-x="1224" d="M77 966v111h421v-366h234q179 0 284.5 -96.5t105.5 -259.5t-105.5 -259t-284.5 -96h-365v966h-290zM498 111h234q118 0 188.5 67t70.5 177q0 111 -71 177.5t-188 66.5h-234v-488z" />
<glyph unicode="&#x44b;" horiz-adv-x="1406" d="M185 0v1077h131v-366h234q179 0 284.5 -96.5t105.5 -259.5t-105.5 -259t-284.5 -96h-365zM316 111h234q118 0 188.5 66.5t70.5 177.5q0 112 -70.5 178t-188.5 66h-234v-488zM1097 0v1077h131v-1077h-131z" />
<glyph unicode="&#x44c;" horiz-adv-x="1042" d="M178 0v1077h131v-366h234q179 0 284.5 -96.5t105.5 -259.5t-105.5 -259t-284.5 -96h-365zM309 111h234q118 0 188.5 66.5t70.5 177.5q0 112 -70.5 178t-188.5 66h-234v-488z" />
<glyph unicode="&#x44d;" horiz-adv-x="1174" d="M116 759q24 144 143 240t302 96q222 0 355 -150t133 -401q0 -258 -132.5 -410.5t-355.5 -152.5q-185 0 -302 91t-142 237h133q24 -96 105.5 -152.5t205.5 -56.5q153 0 248.5 109t103.5 292h-530v112h528q-13 166 -108.5 264.5t-241.5 98.5q-123 0 -205.5 -61t-106.5 -156 h-133z" />
<glyph unicode="&#x44e;" horiz-adv-x="1622" d="M178 0v1077h131v-462h233q20 224 146.5 352t329.5 128q221 0 350 -149.5t129 -408.5q0 -258 -129 -407t-350 -149q-214 0 -342 139.5t-137 383.5h-230v-504h-131zM674 537q0 -205 91.5 -321.5t252.5 -116.5t252.5 116.5t91.5 321.5q0 206 -91.5 322.5t-252.5 116.5 t-252.5 -116.5t-91.5 -322.5z" />
<glyph unicode="&#x44f;" horiz-adv-x="1081" d="M103 0l311 429q-125 26 -196.5 106.5t-71.5 198.5q0 159 105.5 251t284.5 92h367v-1077h-131v407h-219l-293 -407h-157zM277 737q0 -98 71 -158.5t188 -60.5h236v448h-236q-119 0 -189 -61.5t-70 -167.5z" />
<glyph unicode="&#x451;" horiz-adv-x="1194" d="M125 538q0 254 130.5 405.5t350.5 151.5q215 0 339 -143t124 -390v-58h-809v-6q5 -183 99.5 -291t250.5 -108q114 0 194 43.5t115 123.5h133q-40 -132 -158 -208t-287 -76q-222 0 -352 150.5t-130 405.5zM261 612h671q-2 167 -91.5 267t-235.5 100q-147 0 -241 -100.5 t-103 -266.5zM321 1330q0 43 30 72.5t72 29.5q43 0 72.5 -29.5t29.5 -72.5t-29.5 -72.5t-72.5 -29.5q-42 0 -72 29.5t-30 72.5zM685 1330q0 43 30 72.5t72 29.5q43 0 72.5 -29.5t29.5 -72.5t-29.5 -72.5t-72.5 -29.5q-42 0 -72 29.5t-30 72.5z" />
<glyph unicode="&#x452;" horiz-adv-x="1255" d="M57 1285v98h132v153h131v-153h272v-98h-272v-402h12q40 99 135.5 155.5t222.5 56.5q182 0 286.5 -104.5t104.5 -290.5v-783q0 -156 -75 -226t-233 -70h-30v113h27q98 0 139 42t41 140v753q0 148 -77.5 228t-216.5 80q-150 0 -243 -93t-93 -244v-640h-131v1285h-132z" />
<glyph unicode="&#x453;" horiz-adv-x="956" d="M185 0v1077h683v-111h-552v-966h-131zM410 1267l250 327h168l-269 -327h-149z" />
<glyph unicode="&#x454;" horiz-adv-x="1165" d="M125 542q0 253 131.5 403t353.5 150q182 0 300 -95.5t142 -239.5h-133q-25 95 -106 156t-203 61q-146 0 -239.5 -97.5t-107.5 -264.5h522v-111h-525q6 -184 101.5 -293.5t248.5 -109.5q122 0 203 56.5t105 153.5h133q-26 -147 -141.5 -237.5t-298.5 -90.5 q-223 0 -354.5 151.5t-131.5 407.5z" />
<glyph unicode="&#x455;" horiz-adv-x="1078" d="M121 270h136q22 -82 97 -129t191 -47q119 0 198 55t79 139q0 70 -51 113.5t-160 69.5l-163 39q-152 37 -223 103.5t-71 178.5q0 129 112.5 216t276.5 87q163 0 270 -75.5t125 -203.5h-129q-18 76 -89.5 121.5t-177.5 45.5q-107 0 -181.5 -53t-74.5 -133q0 -66 52 -107 t162 -67l148 -35q159 -38 234 -106.5t75 -183.5q0 -138 -119 -227t-297 -89q-176 0 -290 77.5t-130 210.5z" />
<glyph unicode="&#x456;" horiz-adv-x="509" d="M153 1415q0 40 28.5 68.5t68.5 28.5t69 -28.5t29 -68.5q0 -41 -29 -69.5t-69 -28.5t-68.5 29t-28.5 69zM185 0v1077h131v-1077h-131z" />
<glyph unicode="&#x457;" horiz-adv-x="509" d="M-30 1330q0 43 30 72.5t72 29.5q43 0 72.5 -29.5t29.5 -72.5t-29.5 -72.5t-72.5 -29.5q-42 0 -72 29.5t-30 72.5zM189 0v1077h131v-1077h-131zM334 1330q0 43 30 72.5t72 29.5q43 0 72.5 -29.5t29.5 -72.5t-29.5 -72.5t-72.5 -29.5q-42 0 -72 29.5t-30 72.5z" />
<glyph unicode="&#x458;" horiz-adv-x="509" d="M-22 -266h27q98 0 139 42t41 140v1161h131v-1158q0 -156 -75 -227t-233 -71h-30v113zM153 1415q0 40 28.5 68.5t68.5 28.5t69 -28.5t29 -68.5q0 -41 -29 -69.5t-69 -28.5t-68.5 29t-28.5 69z" />
<glyph unicode="&#x459;" horiz-adv-x="1742" d="M57 1v121q24 -8 54 -8q79 0 117 91t51 263q4 43 21.5 301.5t20.5 307.5h689v-366h233q179 0 284.5 -96.5t105.5 -259.5t-105.5 -259t-284.5 -96h-364v966h-439q-3 -48 -17.5 -254.5t-18.5 -248.5q-9 -112 -25.5 -192t-48.5 -146.5t-85 -100t-128 -33.5q-33 0 -60 10z M1010 111h233q118 0 188.5 66.5t70.5 177.5q0 112 -70.5 178t-188.5 66h-233v-488z" />
<glyph unicode="&#x45a;" horiz-adv-x="1764" d="M178 0v1077h131v-447h585v447h131v-446h240q176 0 280 -85.5t104 -230.5t-104 -230t-280 -85h-371v519h-585v-519h-131zM1025 111h240q115 0 183.5 55.5t68.5 148.5q0 94 -68.5 149t-183.5 55h-240v-408z" />
<glyph unicode="&#x45b;" horiz-adv-x="1255" d="M57 1285v98h132v163h131v-163h272v-98h-272v-402h12q40 99 135.5 155.5t222.5 56.5q182 0 286.5 -104.5t104.5 -290.5v-700h-131v669q0 148 -77.5 228t-216.5 80q-150 0 -243 -93t-93 -244v-640h-131v1285h-132z" />
<glyph unicode="&#x45c;" horiz-adv-x="1092" d="M178 0v1077h131v-472h42l479 472h162l-531 -517l555 -560h-173l-492 500h-42v-500h-131zM454 1267l250 327h168l-269 -327h-149z" />
<glyph unicode="&#x45e;" horiz-adv-x="1099" d="M77 1077h142l326 -934h12l325 934h140l-419 -1129q-71 -190 -142 -256.5t-204 -66.5q-40 0 -61 4v113q21 -3 59 -3q75 0 120.5 42t83.5 145l22 67zM240 1538h120q0 -88 53.5 -147t141.5 -59q89 0 142.5 59t53.5 147h120q0 -132 -87 -215t-229 -83t-228.5 83t-86.5 215z " />
<glyph unicode="&#x45f;" horiz-adv-x="1213" d="M178 0v1077h131v-966h595v966h131v-1077h-366v-285h-125v285h-366z" />
<glyph unicode="&#x490;" horiz-adv-x="1153" d="M195 0v1443h715v273h128v-398h-705v-1318h-138z" />
<glyph unicode="&#x491;" horiz-adv-x="956" d="M178 0v1077h559v274h124v-385h-552v-966h-131z" />
<glyph unicode="&#x2000;" horiz-adv-x="937" />
<glyph unicode="&#x2001;" horiz-adv-x="1874" />
<glyph unicode="&#x2002;" horiz-adv-x="937" />
<glyph unicode="&#x2003;" horiz-adv-x="1874" />
<glyph unicode="&#x2004;" horiz-adv-x="624" />
<glyph unicode="&#x2005;" horiz-adv-x="468" />
<glyph unicode="&#x2006;" horiz-adv-x="312" />
<glyph unicode="&#x2007;" horiz-adv-x="312" />
<glyph unicode="&#x2008;" horiz-adv-x="234" />
<glyph unicode="&#x2009;" horiz-adv-x="374" />
<glyph unicode="&#x200a;" horiz-adv-x="104" />
<glyph unicode="&#x2010;" horiz-adv-x="975" d="M159 520v124h656v-124h-656z" />
<glyph unicode="&#x2011;" horiz-adv-x="975" d="M159 520v124h656v-124h-656z" />
<glyph unicode="&#x2012;" horiz-adv-x="975" d="M159 520v124h656v-124h-656z" />
<glyph unicode="&#x2013;" horiz-adv-x="1024" d="M0 520v124h1024v-124h-1024z" />
<glyph unicode="&#x2014;" horiz-adv-x="2048" d="M0 520v124h2048v-124h-2048z" />
<glyph unicode="&#x2018;" horiz-adv-x="548" d="M141 1443h137l129 -508h-123z" />
<glyph unicode="&#x2019;" horiz-adv-x="548" d="M138 935l135 508h137l-149 -508h-123z" />
<glyph unicode="&#x201a;" horiz-adv-x="548" d="M138 -396l135 508h137l-149 -508h-123z" />
<glyph unicode="&#x201c;" horiz-adv-x="904" d="M141 1443h137l129 -508h-123zM497 1443h136l130 -508h-123z" />
<glyph unicode="&#x201d;" horiz-adv-x="904" d="M141 935l129 508h137l-143 -508h-123zM497 935l129 508h137l-143 -508h-123z" />
<glyph unicode="&#x201e;" horiz-adv-x="904" d="M141 -396l129 508h137l-143 -508h-123zM497 -396l129 508h137l-143 -508h-123z" />
<glyph unicode="&#x2020;" horiz-adv-x="1037" d="M162 1120v114h299v318h115v-318h299v-114h-299v-624h-115v624h-299z" />
<glyph unicode="&#x2021;" horiz-adv-x="1037" d="M162 759v114h301v151v150h-301v114h299v264h115v-264h299v-114h-301v-150v-151h301v-114h-299v-263h-115v263h-299z" />
<glyph unicode="&#x2022;" horiz-adv-x="1037" d="M254 586q0 111 76.5 188t187.5 77t188 -77t77 -188t-77 -187.5t-188 -76.5t-187.5 76.5t-76.5 187.5z" />
<glyph unicode="&#x2026;" horiz-adv-x="1626" d="M186 100q0 46 32.5 78t78.5 32q45 0 77.5 -32t32.5 -78q0 -45 -32.5 -77.5t-77.5 -32.5q-46 0 -78.5 32.5t-32.5 77.5zM703 100q0 46 32.5 78t78.5 32q45 0 77.5 -32t32.5 -78q0 -45 -32.5 -77.5t-77.5 -32.5q-46 0 -78.5 32.5t-32.5 77.5zM1212 100q0 46 32.5 78 t77.5 32q46 0 78.5 -32t32.5 -78q0 -45 -32.5 -77.5t-78.5 -32.5q-45 0 -77.5 32.5t-32.5 77.5z" />
<glyph unicode="&#x202f;" horiz-adv-x="374" />
<glyph unicode="&#x2030;" horiz-adv-x="2320" d="M101 1125q0 149 83.5 244t214.5 95t214.5 -94.5t83.5 -244.5q0 -151 -83.5 -246t-214.5 -95t-214.5 95t-83.5 246zM204 0l551 746l514 697h141l-557 -756l-506 -687h-143zM224 1125q0 -109 48 -174.5t127 -65.5q78 0 126 66t48 174q0 109 -47 174t-127 65 q-79 0 -127 -65.5t-48 -173.5zM913 320q0 149 83.5 244t215.5 95q131 0 214 -94.5t83 -244.5q0 -151 -83 -246t-214 -95q-132 0 -215.5 95t-83.5 246zM1036 320q0 -109 48.5 -175t127.5 -66q78 0 126 66.5t48 174.5q0 109 -47 173.5t-127 64.5t-128 -65t-48 -173zM1632 320 q0 149 83 244t215 95q131 0 214 -94.5t83 -244.5q0 -151 -83 -246t-214 -95t-214.5 95t-83.5 246zM1754 320q0 -109 48.5 -175t127.5 -66q78 0 126 66.5t48 174.5q0 109 -47 173.5t-127 64.5t-128 -65t-48 -173z" />
<glyph unicode="&#x2039;" horiz-adv-x="912" d="M185 563v6l359 414h157l-357 -411v-13l357 -410h-157z" />
<glyph unicode="&#x203a;" horiz-adv-x="912" d="M211 149l357 410v13l-357 411h157l358 -414v-6l-358 -414h-157z" />
<glyph unicode="&#x2044;" horiz-adv-x="564" d="M-101 0l332 751l305 692h128l-318 -721l-319 -722h-128z" />
<glyph unicode="&#x205f;" horiz-adv-x="468" />
<glyph unicode="&#x20ac;" d="M99 515v106h218q-5 40 -5 101q0 56 4 99h-217v105h233q53 263 247 401.5t501 138.5q68 0 124 -8v-125q-36 6 -124 6q-241 0 -396.5 -105t-205.5 -308h556v-105h-577q-5 -53 -5 -99q0 -48 5 -101h577v-106h-557q51 -201 207.5 -306t395.5 -105q72 0 128 7v-125 q-58 -8 -128 -8q-306 0 -500 137.5t-248 399.5h-233z" />
<glyph unicode="&#x2122;" horiz-adv-x="2192" d="M103 1335v108h757v-108h-318v-782h-121v782h-318zM1018 553v890h131l330 -700h11l326 700h133v-890h-113v672h-11l-300 -640h-83l-301 640h-11v-672h-112z" />
<glyph unicode="&#x2202;" horiz-adv-x="1202" d="M138 436q0 221 130.5 362.5t336.5 141.5q94 0 187 -42.5t143 -109.5h12q-17 265 -171 444.5t-399 220.5l34 116q302 -50 482 -277.5t180 -561.5q0 -350 -139.5 -555t-377.5 -205q-182 0 -300 131.5t-118 334.5zM276 435q0 -151 81.5 -246.5t209.5 -95.5q165 0 270.5 160 t105.5 410q-59 74 -144 114.5t-181 40.5q-148 0 -245 -108.5t-97 -274.5z" />
<glyph unicode="&#x220f;" horiz-adv-x="1512" d="M184 1319v124h1144v-124h-194v-1519h-136v1519h-482v-1519h-137v1519h-195z" />
<glyph unicode="&#x2211;" horiz-adv-x="1297" d="M210 -159l490 748v8l-489 725v121h893v-121h-742v-7l487 -718v-8l-488 -741v-7h742v-121h-893v121z" />
<glyph unicode="&#x221a;" horiz-adv-x="1398" d="M101 681h136l243 -772h12l434 1534h471v-124h-377l-448 -1547h-171z" />
<glyph unicode="&#x221e;" horiz-adv-x="1852" d="M92 606q0 166 114.5 276.5t284.5 110.5q120 0 219.5 -66.5t215.5 -224.5q109 153 211.5 221t224.5 68q170 0 284 -111t114 -277t-113 -276.5t-283 -110.5q-122 0 -225.5 69t-212.5 223q-103 -150 -209 -220t-230 -70q-170 0 -282.5 111t-112.5 277zM222 603 q0 -116 74.5 -190.5t190.5 -74.5q99 0 184.5 63t179.5 204q-109 148 -188 206.5t-171 58.5q-118 0 -194 -75.5t-76 -191.5zM1001 603q104 -144 186.5 -204t177.5 -60q116 0 190.5 74.5t74.5 190.5t-75.5 191t-193.5 75q-96 0 -178.5 -61t-181.5 -206z" />
<glyph unicode="&#x222b;" horiz-adv-x="1102" d="M120 -283l1 111q51 -11 98 -11q77 0 119.5 43.5t57.5 138.5l179 1181q22 153 94 221t210 68q51 0 104 -12l-2 -111q-51 11 -98 11q-77 0 -119.5 -43.5t-57.5 -138.5l-179 -1181q-22 -152 -94 -220.5t-209 -68.5q-51 0 -104 12z" />
<glyph unicode="&#x2248;" d="M229 183q-1 136 65.5 212t184.5 76q96 0 212 -113q96 -96 153 -96q132 0 138 175h109q0 -137 -66 -212.5t-183 -75.5q-97 0 -213 113q-96 97 -153 97q-131 0 -137 -176h-110zM229 594q-1 136 65.5 212t184.5 76q96 0 212 -113q95 -96 153 -96q132 0 138 175h109 q0 -137 -66 -212.5t-183 -75.5q-97 0 -213 113q-96 96 -153 96q-131 0 -137 -175h-110z" />
<glyph unicode="&#x2260;" d="M163 331v115h404l108 268h-512v115h558l105 262h104l-105 -262h333v-115h-379l-108 -268h487v-115h-533l-130 -324h-104l130 324h-358z" />
<glyph unicode="&#x2264;" d="M174 112v114h972v-114h-972zM174 723v114l973 325v-127l-796 -249v-12l796 -249v-127z" />
<glyph unicode="&#x2265;" d="M174 112v114h973v-114h-973zM174 398v127l796 249v12l-796 249v127l973 -325v-114z" />
<glyph unicode="&#x25ca;" horiz-adv-x="1177" d="M130 652l391 690h136l390 -690l-390 -691h-136zM268 652l315 -564h12l314 564l-314 563h-12z" />
<glyph unicode="&#x25fc;" horiz-adv-x="1075" d="M0 0v1075h1075v-1075h-1075z" />
<glyph unicode="&#xf8ff;" horiz-adv-x="1963" d="M245 791q-3 188 76 324q60 102 160 164t214 64q51 2 109 -18.5t108 -41.5t78 -21q27 0 83 20t127 40.5t134 20.5q31 0 66 -6t84.5 -22.5t99 -55.5t85.5 -95q-149 -93 -187 -249q-12 -47 -12 -97q3 -75 29 -140t60 -104t70.5 -67t59 -39.5t26.5 -11.5q-1 -1 -6 -16 t-14.5 -40t-23 -55.5t-35.5 -70t-48 -75.5q-34 -51 -58.5 -83t-60 -68.5t-75 -54t-83.5 -17.5q-56 0 -140 37t-154 37q-61 0 -112 -18.5t-95.5 -37t-89.5 -18.5q-44 0 -84.5 18.5t-78 56.5t-62.5 69.5t-62 83.5q-79 114 -132.5 272.5t-55.5 314.5zM980 1366q-26 131 91 277 q52 61 127 98.5t145 37.5q9 -163 -101 -283q-47 -63 -119.5 -101t-142.5 -29z" />
<glyph unicode="&#xfb01;" horiz-adv-x="1197" d="M67 966v111h174v119q0 297 297 297q45 0 98 -10v-111q-37 9 -91 9q-84 0 -128.5 -47t-44.5 -141v-116h254v-111h-254v-966h-131v966h-174zM851 1415q0 40 28.5 68.5t68.5 28.5t69 -28.5t29 -68.5q0 -41 -29 -69.5t-69 -28.5t-68.5 29t-28.5 69zM883 0v1077h131v-1077 h-131z" />
<glyph unicode="&#xfb02;" horiz-adv-x="1197" d="M67 966v111h174v119q0 297 297 297q45 0 98 -10v-111q-37 9 -91 9q-84 0 -128.5 -47t-44.5 -141v-116h254v-111h-254v-966h-131v966h-174zM887 0v1506h131v-1506h-131z" />
</font>
</defs>
</svg>
